PathFileType	4	(X/Y/Z)	RBDS07static.trc
DataRate	CameraRate	NumFrames	NumMarkers	Units	OrigDataRate	OrigDataStartFrame	OrigNumFrames
150.000000	150.000000	4	48	mm	150.000000	37	150
Frame#	Time	L.Ankle			L.Ankle.Medial			L.ASIS			L.GTR			L.Heel.Bottom			L.Heel.Lateral			L.Heel.Top			L.HF			L.Iliac.Crest			L.Knee			L.Knee.Medial			L.MT1			L.MT2			L.MT5			L.PSIS			L.Shank.Bottom.Lateral			L.Shank.Bottom.Medial			L.Shank.Top.Lateral			L.Shank.Top.Medial			L.Thigh.Bottom.Lateral			L.Thigh.Bottom.Medial			L.Thigh.Top.Lateral			L.Thigh.Top.Medial			L.TT			R.Ankle			R.Ankle.Medial			R.ASIS			R.GTR			R.Heel.Bottom			R.Heel.Lateral			R.Heel.Top			R.HF			R.Iliac.Crest			R.Knee			R.Knee.Medial			R.MT1			R.MT2			R.MT5			R.PSIS			R.Shank.Bottom.Lateral			R.Shank.Bottom.Medial			R.Shank.Top.Lateral			R.Shank.Top.Medial			R.Thigh.Bottom.Lateral			R.Thigh.Bottom.Medial			R.Thigh.Top.Lateral			R.Thigh.Top.Medial			R.TT			
		X1	Y1	Z1	X2	Y2	Z2	X3	Y3	Z3	X4	Y4	Z4	X5	Y5	Z5	X6	Y6	Z6	X7	Y7	Z7	X8	Y8	Z8	X9	Y9	Z9	X10	Y10	Z10	X11	Y11	Z11	X12	Y12	Z12	X13	Y13	Z13	X14	Y14	Z14	X15	Y15	Z15	X16	Y16	Z16	X17	Y17	Z17	X18	Y18	Z18	X19	Y19	Z19	X20	Y20	Z20	X21	Y21	Z21	X22	Y22	Z22	X23	Y23	Z23	X24	Y24	Z24	X25	Y25	Z25	X26	Y26	Z26	X27	Y27	Z27	X28	Y28	Z28	X29	Y29	Z29	X30	Y30	Z30	X31	Y31	Z31	X32	Y32	Z32	X33	Y33	Z33	X34	Y34	Z34	X35	Y35	Z35	X36	Y36	Z36	X37	Y37	Z37	X38	Y38	Z38	X39	Y39	Z39	X40	Y40	Z40	X41	Y41	Z41	X42	Y42	Z42	X43	Y43	Z43	X44	Y44	Z44	X45	Y45	Z45	X46	Y46	Z46	X47	Y47	Z47	X48	Y48	Z48	

38	0.2466666666666667	696.3095092773438	113.3855056762695	1034.691528320313	718.7666015625	124.8806838989258	1117.478149414063	842.8557739257813	1083.453735351563	1089.84423828125	777.2330932617188	984.7733764648438	1046.629150390625	637.3944091796875	39.62398529052734	1080.095092773438	665.43896484375	61.31439971923828	1038.872314453125	644.9088134765625	87.53734588623047	1082.917358398438	695.8404541015625	502.3538208007813	1045.924194335938	781.331787109375	1131.802734375	1069.024291992188	705.0545043945313	560.7100219726563	1056.046997070313	714.5000610351563	537.4248657226563	1173.148681640625	854.36962890625	56.05835342407227	1119.537841796875	858.1135864257813	71.62196350097656	1080.131103515625	828.4769897460938	50.47868347167969	1010.905700683594	682.1820678710938	1101.799926757813	1180.16455078125	689.2459106445313	202.6768646240234	1034.816528320313	646.5966796875	196.8856658935547	1068.484741210938	674.2556762695313	281.3565673828125	1027.735473632813	632.44970703125	276.6734924316406	1060.657836914063	708.3342895507813	704.0076293945313	1045.200927734375	662.2388305664063	711.3134155273438	1102.139038085938	717.9905395507813	813.9195556640625	1041.890625	678.531494140625	820.150390625	1099.944458007813	755.0739135742188	468.292724609375	1095.89697265625	702.6672973632813	107.6629409790039	1411.6044921875	721.603515625	130.974365234375	1328.811889648438	849.733642578125	1084.295166015625	1347.986328125	796.8305053710938	984.934814453125	1392.923095703125	636.2454833984375	40.20206832885742	1370.213623046875	659.9627685546875	59.72571182250977	1408.906616210938	643.6041259765625	89.76475524902344	1369.489013671875	724.3531494140625	502.6264038085938	1414.085205078125	783.0573120117188	1136.561767578125	1369.3974609375	733.0787963867188	559.8651123046875	1404.844848632813	732.9949951171875	541.8599243164063	1288.02978515625	857.1242065429688	61.18259048461914	1328.692749023438	858.0714721679688	74.04141235351563	1369.9052734375	832.7378540039063	54.64617538452148	1433.022827148438	689.5948486328125	1106.477905273438	1270.0205078125	693.575439453125	202.80419921875	1417.257690429688	653.0479736328125	209.4275360107422	1385.25	694.1115112304688	286.5617065429688	1430.50048828125	650.198974609375	289.2583923339844	1399.199829101563	764.7543334960938	668.1063842773438	1412.448364257813	697.9658203125	682.0294799804688	1384.606811523438	783.2429809570313	776.976806640625	1419.880493164063	719.7777709960938	789.2836303710938	1395.032348632813	778.6950073242188	469.8645324707031	1364.931640625	
39	0.2533333333333334	696.31298828125	113.3825149536133	1034.680786132813	718.7758178710938	124.8901138305664	1117.4609375	842.8351440429688	1083.468872070313	1089.834228515625	777.2239379882813	984.7706298828125	1046.63427734375	637.3972778320313	39.61260223388672	1080.103393554688	665.4435424804688	61.31126403808594	1038.873291015625	644.9081420898438	87.54354095458984	1082.928833007813	695.82958984375	502.3580627441406	1045.920288085938	781.3064575195313	1131.814453125	1069.013427734375	705.047119140625	560.708251953125	1056.038940429688	714.4686279296875	537.4252319335938	1173.016357421875	854.3695678710938	56.05891036987305	1119.53857421875	858.1217041015625	71.62187957763672	1080.135864257813	828.4832153320313	50.4830207824707	1010.899475097656	682.1648559570313	1101.791259765625	1180.154663085938	689.2353515625	202.6754150390625	1034.807250976563	646.5890502929688	196.8856353759766	1068.50537109375	674.2596435546875	281.3486938476563	1027.734008789063	632.4437255859375	276.6651306152344	1060.648559570313	708.3265991210938	703.9993286132813	1045.1904296875	662.2255249023438	711.3108520507813	1102.136474609375	717.9827880859375	813.9094848632813	1041.89306640625	678.5133056640625	820.1408081054688	1099.949829101563	755.0731201171875	468.3028259277344	1095.8818359375	702.6590576171875	107.6524658203125	1411.621704101563	721.6148071289063	130.9790344238281	1328.797119140625	849.701416015625	1084.293823242188	1347.986083984375	796.7991333007813	984.9301147460938	1392.915405273438	636.2418212890625	40.20103454589844	1370.208740234375	659.9593505859375	59.71576690673828	1408.911376953125	643.5889282226563	89.76237487792969	1369.494873046875	724.3406372070313	502.6182250976563	1414.097778320313	783.0169067382813	1136.559814453125	1369.390747070313	733.0730590820313	559.8749389648438	1404.855224609375	732.9736938476563	541.8533325195313	1288.036254882813	857.126953125	61.16585922241211	1328.69970703125	858.0757446289063	74.04470825195313	1369.908081054688	832.7448120117188	54.64139175415039	1433.014282226563	689.5580444335938	1106.477661132813	1270.023559570313	693.5712280273438	202.8017883300781	1417.275512695313	653.0464477539063	209.4252319335938	1385.243408203125	694.095947265625	286.5661315917969	1430.507690429688	650.1970825195313	289.2574462890625	1399.202026367188	764.7388305664063	668.1101684570313	1412.45556640625	697.951171875	682.0281982421875	1384.6083984375	783.2229614257813	776.9736328125	1419.875854492188	719.7633666992188	789.2775268554688	1395.030639648438	778.682373046875	469.8690490722656	1364.93798828125	
40	0.26	696.3160400390625	113.3729782104492	1034.681518554688	718.76416015625	124.8795547485352	1117.458862304688	842.8157348632813	1083.475708007813	1089.83740234375	777.199462890625	984.7662963867188	1046.63232421875	637.393310546875	39.62091445922852	1080.096801757813	665.43701171875	61.3184700012207	1038.876953125	644.9136962890625	87.53697967529297	1082.925903320313	695.8292846679688	502.3553771972656	1045.918334960938	781.3071899414063	1131.82666015625	1069.01904296875	705.0430908203125	560.6966552734375	1056.035888671875	714.4768676757813	537.432373046875	1173.143310546875	854.3683471679688	56.06030654907227	1119.5302734375	858.1149291992188	71.62310791015625	1080.12060546875	828.4802856445313	50.47676849365234	1010.905090332031	682.1307373046875	1101.791870117188	1180.139770507813	689.2322998046875	202.6794738769531	1034.798706054688	646.5880737304688	196.8751068115234	1068.4853515625	674.2523193359375	281.3554077148438	1027.725708007813	632.44580078125	276.6666259765625	1060.656494140625	708.3167114257813	704.0005493164063	1045.195068359375	662.2149658203125	711.3081665039063	1102.132690429688	717.9640502929688	813.9163818359375	1041.890747070313	678.4993896484375	820.1365966796875	1099.945190429688	755.0556640625	468.2904357910156	1095.883056640625	702.6616821289063	107.6496200561523	1411.604614257813	721.6116943359375	130.9695129394531	1328.81689453125	849.6656494140625	1084.296630859375	1347.98583984375	796.7650756835938	984.9356689453125	1392.910278320313	636.2440185546875	40.20754241943359	1370.217651367188	659.9630737304688	59.71526718139648	1408.917236328125	643.604248046875	89.76000213623047	1369.50048828125	724.3230590820313	502.6211547851563	1414.085327148438	782.9857177734375	1136.567504882813	1369.389404296875	733.0556640625	559.8563842773438	1404.840942382813	732.9892578125	541.8561401367188	1288.031372070313	857.1228637695313	61.16810607910156	1328.69384765625	858.056884765625	74.04774475097656	1369.911010742188	832.7444458007813	54.64436340332031	1433.011474609375	689.5297241210938	1106.472290039063	1270.016723632813	693.5651245117188	202.7971954345703	1417.265380859375	653.0377197265625	209.4202117919922	1385.255004882813	694.0934448242188	286.5546264648438	1430.501953125	650.18505859375	289.2561340332031	1399.192504882813	764.7243041992188	668.114013671875	1412.460205078125	697.9303588867188	682.018798828125	1384.600708007813	783.2024536132813	776.97119140625	1419.87451171875	719.7442626953125	789.2747192382813	1395.016479492188	778.6826171875	469.8650207519531	1364.937744140625	
41	0.2666666666666667	696.3106079101563	113.3757247924805	1034.685180664063	718.7603149414063	124.8828048706055	1117.462524414063	842.7920532226563	1083.482177734375	1089.842651367188	777.1849365234375	984.7656860351563	1046.626342773438	637.394287109375	39.61759185791016	1080.101684570313	665.4368286132813	61.31060409545898	1038.8740234375	644.9071655273438	87.53778076171875	1082.923583984375	695.8185424804688	502.3460083007813	1045.92333984375	781.2850952148438	1131.84130859375	1069.023803710938	705.02978515625	560.7044067382813	1056.03369140625	714.4772338867188	537.4237670898438	1173.150268554688	854.3614501953125	56.05251693725586	1119.532836914063	858.1123657226563	71.63022613525391	1080.124755859375	828.4729614257813	50.47992706298828	1010.910217285156	682.1097412109375	1101.783813476563	1180.149047851563	689.2234497070313	202.6726837158203	1034.795532226563	646.5856323242188	196.8808288574219	1068.484497070313	674.2435302734375	281.3475952148438	1027.725341796875	632.4370727539063	276.6609191894531	1060.659912109375	708.30712890625	703.9957275390625	1045.192504882813	662.1968383789063	711.3056030273438	1102.128051757813	717.9551391601563	813.9129028320313	1041.890625	678.4844360351563	820.13916015625	1099.9423828125	755.0451049804688	468.2926025390625	1095.880004882813	702.6617431640625	107.6571426391602	1411.618774414063	721.607421875	130.9643402099609	1328.818725585938	849.6344604492188	1084.294189453125	1347.977172851563	796.7376708984375	984.927734375	1392.92041015625	636.23681640625	40.20399856567383	1370.221313476563	659.9586181640625	59.71356964111328	1408.90869140625	643.5930786132813	89.76366424560547	1369.490844726563	724.3758544921875	502.6797485351563	1414.2197265625	782.9559936523438	1136.561401367188	1369.391479492188	733.0528564453125	559.870849609375	1404.846313476563	732.9800415039063	541.8488159179688	1288.03369140625	857.1180419921875	61.17377471923828	1328.695922851563	858.068603515625	74.04395294189453	1369.901611328125	832.743408203125	54.64738464355469	1433.015625	689.4953002929688	1106.464721679688	1270.008056640625	693.555419921875	202.7970123291016	1417.262573242188	653.0343017578125	209.4131774902344	1385.244262695313	694.0770874023438	286.5653686523438	1430.511108398438	650.178955078125	289.2572326660156	1399.19140625	764.713134765625	668.1154174804688	1412.452758789063	697.9105224609375	682.025146484375	1384.59423828125	783.174072265625	776.979736328125	1419.8798828125	719.71875	789.2737426757813	1395.013427734375	778.6685180664063	469.8665466308594	1364.9326171875	
